<?xml version="1.0" standalone="no"?>
<!DOCTYPE svg PUBLIC "-//W3C//DTD SVG 20010904//EN"
 "http://www.w3.org/TR/2001/REC-SVG-20010904/DTD/svg10.dtd">
<svg version="1.0" xmlns="http://www.w3.org/2000/svg"
 width="1024.000000pt" height="1024.000000pt" viewBox="0 0 1024.000000 1024.000000"
 preserveAspectRatio="xMidYMid meet">

<g transform="translate(0.000000,1024.000000) scale(0.100000,-0.100000)"
fill="#000000" stroke="none">
<path d="M3 10200 c0 -25 2 -35 4 -22 2 12 2 32 0 45 -2 12 -4 2 -4 -23z"/>
<path d="M3805 8730 c-70 -15 -105 -53 -105 -112 0 -55 42 -98 124 -127 72
-25 94 -48 76 -81 -23 -43 -95 -36 -112 11 -9 26 -14 29 -54 29 -40 0 -44 -2
-44 -24 0 -32 40 -88 75 -106 17 -8 56 -15 87 -15 68 1 103 22 132 79 38 76
-7 145 -117 181 -54 17 -62 23 -65 47 -3 22 2 30 22 40 32 14 76 -5 76 -33 0
-12 10 -21 27 -25 78 -20 83 81 5 119 -35 18 -90 26 -127 17z"/>
<path d="M5271 8730 c-63 -10 -101 -54 -101 -116 0 -56 31 -92 105 -119 72
-27 95 -44 95 -71 0 -53 -83 -58 -115 -7 -18 29 -25 32 -68 33 -46 0 -48 -1
-41 -22 12 -42 33 -76 59 -96 32 -26 103 -36 154 -22 151 40 142 202 -14 250
-84 26 -106 56 -61 85 31 21 71 6 80 -30 6 -24 10 -27 38 -21 17 3 37 6 44 6
11 0 13 8 8 28 -19 79 -86 117 -183 102z"/>
<path d="M4030 8520 l0 -210 45 0 45 0 0 74 c0 110 15 113 75 13 27 -45 50
-84 51 -86 3 -3 72 -4 164 -2 l45 1 -3 210 -3 210 -44 0 -45 0 -2 -207 -3
-208 -73 108 c-82 123 -82 105 3 219 30 40 55 76 55 80 0 5 -23 8 -50 8 -49 0
-52 -2 -83 -46 -17 -26 -44 -62 -59 -82 l-28 -35 0 82 0 81 -45 0 -45 0 0
-210z"/>
<path d="M4508 8520 l-3 -210 128 0 127 0 0 40 0 40 -80 0 -80 0 0 170 0 170
-45 0 -44 0 -3 -210z"/>
<path d="M4780 8520 l0 -210 130 0 130 0 0 40 0 40 -79 0 -78 0 -7 61 c-3 34
-6 111 -6 170 l0 109 -45 0 -45 0 0 -210z"/>
<path d="M5475 8683 c6 -41 69 -324 80 -360 3 -8 22 -13 48 -13 l44 0 25 123
24 122 17 -70 c9 -38 21 -94 27 -122 l12 -53 44 0 c24 0 44 1 44 3 0 2 18 93
40 202 22 109 40 202 40 207 0 4 -20 8 -45 8 -25 0 -45 -1 -45 -3 0 -11 -40
-221 -43 -223 -2 -2 -14 48 -27 111 l-25 115 -41 0 -41 0 -23 -116 c-13 -64
-26 -110 -30 -103 -4 8 -13 50 -19 94 -20 131 -17 125 -68 125 l-45 0 7 -47z"/>
<path d="M5996 8703 c-4 -16 -29 -95 -55 -178 -27 -82 -52 -165 -56 -182 l-7
-33 44 0 c43 0 45 1 54 38 l9 37 75 0 74 0 9 -37 c9 -38 9 -38 59 -38 35 0 48
4 45 13 -2 6 -33 101 -68 210 l-64 197 -56 0 c-54 0 -57 -2 -63 -27z m114
-240 c0 -2 -20 -3 -45 -3 -25 0 -45 4 -45 8 0 4 10 36 21 71 l22 63 23 -68
c13 -37 24 -69 24 -71z"/>
<path d="M6267 8723 c-4 -3 -7 -98 -7 -210 l0 -203 45 0 44 0 3 73 3 72 58 6
c69 8 105 30 131 83 34 68 -6 155 -82 176 -41 11 -185 14 -195 3z m181 -85 c7
-7 12 -26 12 -43 0 -42 -16 -55 -67 -55 l-43 0 0 48 c0 27 3 52 7 55 11 12 78
8 91 -5z"/>
<path d="M4915 7809 c-750 -59 -1426 -421 -1889 -1013 -284 -363 -466 -802
-525 -1265 -89 -692 100 -1390 518 -1916 118 -149 320 -351 451 -453 47 -37
87 -69 90 -72 14 -14 136 -93 223 -144 104 -61 273 -144 347 -171 185 -66 252
-87 380 -118 80 -19 179 -39 220 -45 100 -15 379 -37 385 -30 3 3 5 319 5 702
0 383 2 696 5 696 3 0 33 -11 67 -25 33 -14 87 -30 118 -37 50 -10 64 -9 104
6 26 10 60 29 77 43 33 28 69 91 69 121 0 16 10 20 56 26 64 7 118 32 156 73
31 33 58 91 58 128 0 23 4 25 43 25 109 1 217 109 217 218 0 18 5 22 34 22 97
0 175 76 211 206 2 6 21 15 42 18 21 4 105 25 188 47 l149 41 20 -29 c37 -51
63 -71 106 -83 48 -13 57 -11 245 41 77 22 264 72 415 113 l275 73 3 37 c2 25
-1 36 -10 36 -12 0 -280 -71 -653 -172 -211 -57 -241 -63 -270 -50 -38 17 -52
47 -100 217 -46 163 -199 726 -218 802 -13 54 3 95 46 115 18 8 235 70 482
137 248 67 456 124 464 127 13 4 8 50 -7 66 -4 4 -124 -25 -267 -63 -143 -39
-352 -94 -465 -124 -113 -29 -217 -58 -232 -64 -32 -12 -79 -69 -94 -113 -11
-33 -12 -33 -185 -80 -96 -26 -189 -47 -206 -47 -18 -1 -74 15 -125 35 -242
92 -314 114 -386 114 -38 0 -89 -7 -112 -15 -41 -15 -45 -14 -129 20 -48 19
-111 40 -139 46 l-52 12 0 871 c0 479 0 879 0 889 0 19 -19 20 -205 6z m177
-1833 c53 -14 127 -38 164 -53 l68 -27 -90 -43 c-551 -265 -584 -283 -614
-330 -35 -56 -45 -106 -30 -165 24 -95 111 -162 210 -162 50 0 82 12 325 126
149 69 279 129 290 132 14 4 39 -9 85 -43 36 -26 187 -136 335 -244 435 -316
437 -318 416 -396 -20 -77 -96 -133 -153 -115 -13 3 -108 70 -213 147 -104 77
-221 164 -260 192 -190 140 -214 152 -238 114 -17 -27 -2 -45 80 -100 106 -72
457 -333 504 -376 33 -30 39 -42 39 -75 0 -115 -111 -175 -205 -111 -22 15
-137 99 -255 187 -353 262 -355 263 -382 213 -13 -25 -45 2 287 -245 295 -220
295 -220 295 -269 0 -71 -54 -130 -128 -140 -36 -5 -45 0 -118 59 -43 35 -108
85 -144 110 -36 26 -75 56 -85 68 -26 29 -88 60 -118 60 -20 0 -23 4 -19 34 9
79 -58 168 -135 181 -60 10 -63 12 -63 46 0 72 -77 139 -160 139 -38 0 -40 2
-40 30 0 82 -87 160 -177 160 -60 0 -103 -30 -255 -178 -162 -156 -151 -152
-216 -93 -25 22 -56 35 -125 51 -138 32 -401 102 -409 109 -8 7 217 860 230
873 4 4 77 -10 162 -31 85 -22 181 -45 213 -51 l58 -12 287 125 c158 69 296
128 307 131 42 11 184 -3 277 -28z m569 -87 c35 -12 109 -39 164 -61 55 -22
129 -50 165 -62 l65 -23 180 48 c185 50 210 54 218 42 5 -8 92 -320 177 -633
27 -96 53 -188 59 -203 8 -21 8 -29 -2 -32 -48 -17 -206 -59 -276 -74 l-84
-18 -36 40 c-37 41 -157 133 -531 405 -124 90 -226 168 -228 172 -1 4 22 17
52 30 30 12 60 28 66 36 15 17 4 51 -18 59 -22 6 -213 -72 -498 -205 -291
-136 -300 -140 -342 -140 -74 0 -132 60 -132 137 0 83 4 85 442 303 448 221
439 218 559 179z m-1024 -911 c28 -26 31 -82 6 -118 -44 -66 -318 -349 -349
-361 -31 -11 -85 9 -108 42 -24 34 -21 99 7 136 34 46 313 312 339 323 32 13
78 4 105 -22z m194 -171 c41 -31 49 -85 21 -132 -33 -53 -352 -383 -375 -387
-39 -7 -71 7 -94 41 -28 41 -29 76 -4 116 23 39 304 334 339 357 31 20 90 23
113 5z m203 -202 c20 -19 26 -33 26 -68 0 -60 -30 -100 -203 -279 -132 -138
-145 -148 -179 -148 -71 0 -129 83 -98 140 16 30 307 341 339 362 37 25 83 23
115 -7z m180 -221 c35 -36 38 -96 8 -146 -27 -42 -202 -228 -246 -259 -22 -16
-52 -29 -68 -29 -65 0 -121 73 -99 128 7 15 78 96 159 180 136 141 150 152
183 152 26 0 44 -8 63 -26z m250 -202 c25 -27 28 -37 23 -71 -9 -72 -64 -121
-136 -121 -38 0 -166 43 -176 60 -2 4 23 38 56 76 33 38 67 90 76 116 l17 46
55 -38 c31 -21 69 -52 85 -68z"/>
<path d="M3 200 c0 -25 2 -35 4 -22 2 12 2 32 0 45 -2 12 -4 2 -4 -23z"/>
</g>
</svg>
